<svg width="719" height="721" viewBox="0 0 719 721" fill="none" xmlns="http://www.w3.org/2000/svg">
<path d="M0 360.5C0 161.954 160.954 0 359.5 0V0C558.046 0 719 161.954 719 360.5V360.5C719 559.046 558.046 721 359.5 721V721C160.954 721 0 559.046 0 360.5V360.5Z" fill="#FF0000"/>
<path d="M56 360C56 192.571 191.728 56 359.157 56V56C526.585 56 662.313 192.571 662.313 360V360C662.313 527.429 526.585 664 359.157 664V664C191.728 664 56 527.429 56 360V360Z" fill="white"/>
<path d="M435 267.825C435 234.326 462.157 207 495.657 207V207C529.156 207 556.313 234.326 556.313 267.825V267.825C556.313 301.325 529.156 328.651 495.657 328.651V328.651C462.157 328.651 435 301.325 435 267.825V267.825Z" fill="#151516"/>
<path d="M201.029 530C200.669 543.61 203.661 548.066 211.529 553.5C221.16 560.332 227.346 559.45 239.529 551C268.533 496.365 294.912 480.743 355.529 473C417.728 475.581 442.895 495.619 477.529 551C485.783 557.816 491.018 559.209 501.529 557C510.991 552.581 514.467 549.017 517.029 540.5C497.772 446.73 391.832 430.269 385.529 429C274.797 432.076 249.978 461.767 247.936 464.592C247.734 464.87 247.755 464.887 247.936 464.592C248.062 464.385 248.267 464.027 248.529 463.5C226.262 486.891 213.897 503.285 201.029 530Z" fill="black"/>
<path d="M385.529 429C391.832 430.269 497.772 446.73 517.029 540.5C514.467 549.017 510.991 552.581 501.529 557C491.018 559.209 485.783 557.816 477.529 551C442.895 495.619 417.728 475.581 355.529 473C294.912 480.743 268.533 496.365 239.529 551C227.346 559.45 221.16 560.332 211.529 553.5C203.661 548.066 200.669 543.61 201.029 530C213.897 503.285 226.262 486.891 248.529 463.5C248.267 464.027 248.062 464.385 247.936 464.592M385.529 429C274.797 432.076 249.978 461.767 247.936 464.592M385.529 429C263.871 432.379 245.917 467.885 247.936 464.592M247.936 464.592C247.755 464.887 247.734 464.87 247.936 464.592Z" stroke="black"/>
<path d="M166 268.825C166 235.326 193.157 208 226.657 208V208C260.156 208 287.313 235.326 287.313 268.825V268.825C287.313 302.325 260.156 329.651 226.657 329.651V329.651C193.157 329.651 166 302.325 166 268.825V268.825Z" fill="#151516"/>
</svg>
