<svg width="1128" height="1128" viewBox="0 0 1128 1128" fill="none" xmlns="http://www.w3.org/2000/svg">
<path d="M142.18 422.25C220.466 189.286 472.785 63.8939 705.75 142.18V142.18C938.714 220.466 1064.11 472.785 985.82 705.75V705.75C907.534 938.714 655.215 1064.11 422.25 985.82V985.82C189.286 907.534 63.894 655.215 142.18 422.25V422.25Z" fill="#007BFF"/>
<path d="M208.085 443.746C274.101 247.293 486.875 141.554 683.328 207.57V207.57C879.781 273.587 985.52 486.361 919.503 682.813V682.813C853.487 879.266 640.713 985.006 444.26 918.989V918.989C247.807 852.972 142.068 640.199 208.085 443.746V443.746Z" fill="white"/>
<path d="M689.191 484.847C702.4 445.54 745.039 424.186 784.346 437.394V437.394C823.653 450.603 844.743 493.374 831.534 532.681V532.681C818.325 571.988 775.686 593.343 736.379 580.134V580.134C697.072 566.925 675.982 524.154 689.191 484.847V484.847Z" fill="#151516"/>
<path d="M310.891 701.389C305.102 717.217 306.857 723.625 313.946 733.103C322.553 744.918 330.159 746.322 347.785 741.21C403.359 688.541 440.472 680.612 514.649 695.427C586.613 722.981 608.242 756.416 627.043 835.053C634.04 846.306 639.634 850.004 652.838 851.556C665.683 850.103 671.166 847.291 677.53 838.307C691.908 720.69 574.095 659.603 567.199 655.629C458.028 609.523 405.132 637.9 391.72 643.138C391.374 643.385 391.391 643.413 391.72 643.138C391.95 642.946 392.331 642.606 392.847 642.091C357.497 660.757 336.524 675.117 310.891 701.389Z" fill="#151516"/>
<path d="M567.199 655.629C574.095 659.603 691.908 720.69 677.53 838.307C671.166 847.291 665.683 850.103 652.838 851.556C639.634 850.004 634.04 846.306 627.043 835.053C608.242 756.416 586.613 722.981 514.649 695.427C440.472 680.612 403.359 688.541 347.785 741.21C330.159 746.322 322.553 744.918 313.946 733.103C306.857 723.625 305.102 717.217 310.891 701.389C336.524 675.117 357.497 660.757 392.847 642.091C392.331 642.606 391.95 642.946 391.72 643.138M567.199 655.629C458.028 609.523 405.132 637.9 391.72 643.138M567.199 655.629C423.119 611.625 388.053 646.206 391.72 643.138M391.72 643.138C391.391 643.413 391.374 643.385 391.72 643.138Z" stroke="black" stroke-width="1.23783"/>
<path d="M373.003 380.435C386.212 341.128 428.785 319.972 468.092 333.181V333.181C507.399 346.389 528.555 388.962 515.347 428.269V428.269C502.138 467.576 459.565 488.733 420.258 475.524V475.524C380.951 462.315 359.794 419.742 373.003 380.435V380.435Z" fill="#151516"/>
</svg>
